<?xml version="1.0" encoding="utf-8"?>
<!-- Generator: Adobe Illustrator 25.0.1, SVG Export Plug-In . SVG Version: 6.00 Build 0)  -->
<svg version="1.1" xmlns="http://www.w3.org/2000/svg" xmlns:xlink="http://www.w3.org/1999/xlink" x="0px" y="0px"
	 viewBox="0 0 170.1 170.1" style="enable-background:new 0 0 170.1 170.1;" xml:space="preserve">
<style type="text/css">
	.st0{fill-rule:evenodd;clip-rule:evenodd;fill:#FFFFFE;}
</style>
<g id="Layer_3">
</g>
<g id="Layer_2">
	<g>
		<path class="st0" d="M30.6,112.1c0.2,2,0.8,4.2,1.4,6.5c0.9,3.1,2.1,6.1,2.8,9.3c2.2,9.4,0.8,10.1,3.4,18.4
			c1.5,4.8,6.4,13.9,19.3,16.3c4.7,0.9,6.6,0.7,8.2,0.9c2.3,0.4,5.4,1,8.1,1.7c3.4,0.9,6.3,1.6,12,1.7c9.9,0.1,19.1-2,28.4-8.5
			c6.6-4.6,12-7.3,19.2-13.2c7.1-5.8,11.3-10.5,18.9-16.3c4.5-3.4,9-5.3,13.2-7.6c3.4-1.9,0.3-8.6-3.4-10.1
			c-11.6-4.7-20.3,3.4-24.7,9.7c-1.2,1.7-4.3,3.5-7.2,4.4c-6,1.8-7.6,0-12.2-1.5c-4.7-1.5-6.5-2.7-7.3-8.1c-0.4-2.7-1.2-4.3-2.7-6.7
			c-2-3.2-5-4.9-8.8-4.5c-1.6,0.1-4.3-0.1-1.5-2c4-2.7,6.6-6.4,7.5-11.3c0.8-4.3-0.9-8.9-4.4-9.8c-4.6-1.2-9.2-2-13.9,0
			c-1.5,0.6-3.2,1.3-4.8,1.5c-3.4,0.3-6.8,0.2-10.2,0.3c-3.5,0.1-6.9,0.1-9.6,3c-0.7,0.8-2.2,1.5-3.1,1.3c-3.9-1-6,1-8.2,3.7
			c-2.9,3.5-6.9,6.2-10.8,6.5c-2.6,0.2-5.5-2.8-6.2-4.8c-4.8-12.5-7.5-16.1-11.3-24.2c-1.4-3-4.3-8.7-6.9-17.2
			c-1-3.3-4.6-5.3-7.2-5.3c-3.2,0-6.2,2.1-5.7,7c0.3,2.8,0.8,6.7,2.4,11.1c2.8,7.5,7.3,19.8,21.9,36.8c2.2,2.5,3,6.6,3.3,9.2
			C30.6,110.7,30.7,111.7,30.6,112.1z"/>
		<path class="st0" d="M74.8,44.1c0.7,17,1.6,21.8,2.1,23.8s2.1,3.3,4.2,3.3c2.1,0,3.8-1.7,4.4-3.6c1.9-6,3-12.9,3.9-24.2
			C90,35.3,90,26.2,90,21.2c0-2.6,0.9-8,0.8-9.8c-0.3-4.5-3.9-8.2-8.5-8.2c-4.7,0-7.8,4.3-8.1,9.2c-0.2,2.1,0.7,6.5,0.6,9.7
			C74.8,26.2,74.4,35.6,74.8,44.1z"/>
		<path class="st0" d="M103.7,75.4c8-0.6,9.9-11.3,12.6-21.6c1.8-6.8,3.2-12.3,5-18.2c1-3.4,2.4-6.2,2.9-8.5
			c1.1-5.6-2.5-10.7-7.1-10.7c-4.7,0-7.8,4.2-8.3,8.9c-0.3,2.6-0.6,6.1-1,8.4c-3.1,21.4-5.2,25.2-8.4,36
			C98.5,72.9,101.3,75.6,103.7,75.4z"/>
		<path class="st0" d="M39.5,31.7c0.8,9.8,2.5,21.3,4.2,26.8c0.9,2.9,4.7,3.6,6,3.6s2.2,0.4,1.2,0.8s-3,2.3-3.4,4.4
			C47.1,69.5,50.2,74,52,76c1.1,1.2,2.3,1.7,3.3,1.7c2.4,0,4.3-1.9,4.3-4.2c0-2.4-2.1-7.6-2.3-11.4c-0.3-4.6,0.7-9.2,0.4-13.8
			c-0.5-7.2-2.2-15.2-2.9-19c-0.8-4-0.3-6.4-0.9-9c-0.9-3.8-4.5-5.6-8.1-5.6c-4.7,0-7.5,4.7-7.3,9.7C38.6,26.2,39.2,27.7,39.5,31.7z
			"/>
	</g>
</g>
</svg>
